HIERARCHY
ROOT Root
{
	OFFSET 0.00000 0.00000 0.00000
	CHANNELS 6 Xposition Yposition Zposition Zrotation Xrotation Yrotation
	JOINT Hip
	{
		OFFSET 0 0 0	
		CHANNELS 3 Zrotation Xrotation Yrotation
		JOINT Tummy
		{
			OFFSET 0 0.04 0	
			CHANNELS 3 Zrotation Xrotation Yrotation
			JOINT ChestBottom
			{
				OFFSET 0 0.194 0	
				CHANNELS 3 Zrotation Xrotation Yrotation
				JOINT ChestTop
				{
					OFFSET 0 0.166 0	
					CHANNELS 3 Zrotation Xrotation Yrotation
					JOINT LeftCollar
					{
						OFFSET 0 0.1 0	
						CHANNELS 3 Zrotation Xrotation Yrotation
						JOINT LeftUpperArm
						{
							OFFSET 0.156 -0.02 0.03	
							CHANNELS 3 Zrotation Xrotation Yrotation
							JOINT LeftForeArm
							{
								OFFSET 0.035 -0.27 -0.01	
								CHANNELS 3 Zrotation Xrotation Yrotation
								JOINT LeftHand
								{
									OFFSET 0.01 -0.27 0.01	
									CHANNELS 3 Zrotation Xrotation Yrotation
									End Site
									{
										OFFSET 0 -0.15 0
									}
								}
							}
						}
					}
					JOINT RightCollar
					{
						OFFSET 0 0.1 0	
						CHANNELS 3 Zrotation Xrotation Yrotation
						JOINT RightUpperArm
						{
							OFFSET -0.156 -0.02 0.03	
							CHANNELS 3 Zrotation Xrotation Yrotation
							JOINT RightForeArm
							{
								OFFSET -0.035 -0.27 -0.01	
								CHANNELS 3 Zrotation Xrotation Yrotation
								JOINT RightHand
								{
									OFFSET -0.01 -0.27 0.01	
									CHANNELS 3 Zrotation Xrotation Yrotation
									End Site
									{
										OFFSET 0 -0.15 0
									}
								}
							}
						}
					}
					JOINT Neck
					{
						OFFSET 0 0.1 0	
						CHANNELS 3 Zrotation Xrotation Yrotation
						JOINT Head
						{
							OFFSET 0 0.127 0.03	
							CHANNELS 3 Zrotation Xrotation Yrotation
							End Site
							{
								OFFSET 0 0.127 0.03
							}
						}
					}
				}
			}
		}
	}
	JOINT LeftHip
	{
		OFFSET 0 0 0	
		CHANNELS 3 Zrotation Xrotation Yrotation
		JOINT LeftThigh
		{
			OFFSET 0.088 -0.06 0	
			CHANNELS 3 Zrotation Xrotation Yrotation
			JOINT LeftLowerLeg
			{
				OFFSET 0 -0.39 0.02	
				CHANNELS 3 Zrotation Xrotation Yrotation
				JOINT LeftFootTop
				{
					OFFSET 0 -0.43 -0.02	
					CHANNELS 3 Zrotation Xrotation Yrotation
					JOINT LeftFootFront
					{
						OFFSET 0 -0.07 0.085	
						CHANNELS 3 Zrotation Xrotation Yrotation
						End Site
						{
							OFFSET 0 -0.005 0.09
						}
					}
				}
				JOINT LeftHeel
				{
					OFFSET 0 -0.43 -0.02	
					CHANNELS 3 Zrotation Xrotation Yrotation
					End Site
					{
						OFFSET 0 -0.075 -0.05
					}
				}
			}
		}
	}
	JOINT RightHip
	{
		OFFSET 0 0 0	
		CHANNELS 3 Zrotation Xrotation Yrotation
		JOINT RightThigh
		{
			OFFSET -0.088 -0.06 0	
			CHANNELS 3 Zrotation Xrotation Yrotation
			JOINT RightLowerLeg
			{
				OFFSET 0 -0.39 0.02	
				CHANNELS 3 Zrotation Xrotation Yrotation
				JOINT RightFootTop
				{
					OFFSET 0 -0.43 -0.02	
					CHANNELS 3 Zrotation Xrotation Yrotation
					JOINT RightFootFront
					{
						OFFSET 0 -0.07 0.085	
						CHANNELS 3 Zrotation Xrotation Yrotation
						End Site
						{
							OFFSET 0 -0.005 0.09
						}
					}
				}
				JOINT RightHeel
				{
					OFFSET 0 -0.43 -0.02	
					CHANNELS 3 Zrotation Xrotation Yrotation
					End Site
					{
						OFFSET 0 -0.075 -0.05
					}
				}
			}
		}
	}
}
MOTION
Frames: 14
Frame Time: 0.05
0 0.9269 0 -0 0 -0 16.487 2.1269 -58.42 -10.306 -3.4782 30.577 -10.306 -3.4782 30.577 -8.8026 -2.5593 25.728 -0 0 -0 13.397 -10.738 -33.043 2.093 -6.1606 -5.8762 5.37 -6.2112 29.075 -0 0 -0 8.3126 -10.406 -30.042 -2.0366 -0.33696 -2.4697 -21.785 1.2456 18.927 9.1244 3.6711 -52.066 9.1244 3.6711 -52.066 16.487 2.1269 -58.42 9.5576 -19.07 80.442 14.836 -0.44787 22.358 -0 0 -0 -8.5377e-07 -7.9514e-15 1.0672e-06 -0 0 -0 16.487 2.1269 -58.42 -0.78521 -31.517 62.27 -0.62913 10.169 26.303 -0 0 -0 3.8158e-08 -8.119 5.3766e-07 -0 0 -0 
0 0.92701 0 -0 0 -0 16.317 1.9463 -58.946 -10.025 -3.5657 30.635 -10.025 -3.5657 30.635 -8.5696 -2.6424 25.776 -0 0 -0 13.368 -9.9266 -32.929 2.0725 -6.2121 -6.4779 5.478 -6.5652 28.672 -0 0 -0 8.4664 -10.537 -30.337 -2.331 -0.36986 -1.6001 -23.05 1.6998 17.947 8.9884 3.8975 -52.03 8.9884 3.8975 -52.03 16.317 1.9463 -58.946 9.5013 -18.591 80.595 14.758 -0.32251 22.351 -0 0 -0 8.5377e-07 1.5903e-15 2.1344e-07 -0 0 -0 16.317 1.9463 -58.946 -0.61509 -31.211 62.513 -0.69678 10.101 26.567 -0 0 -0 -8.6791e-07 -8.1304 -1.6867e-07 -0 0 -0 
0 0.92715 0 -0 0 -0 16.119 1.7578 -59.496 -9.7375 -3.6019 30.633 -9.7375 -3.6019 30.633 -8.3288 -2.6833 25.773 -0 0 -0 13.268 -9.1617 -32.619 2.0468 -6.2573 -7.1178 5.5904 -6.9152 28.314 -0 0 -0 8.6887 -10.115 -31.25 -2.3308 -0.40156 0.019586 -24.093 1.7417 16.503 8.8099 4.0723 -51.901 8.8099 4.0723 -51.901 16.119 1.7578 -59.496 9.4899 -18.097 80.727 14.688 -0.16209 22.343 -0 0 -0 -8.5377e-07 1.1132e-14 -1.4941e-06 -0 0 -0 16.119 1.7578 -59.496 -0.43496 -30.877 62.775 -0.7304 10.012 26.783 -0 0 -0 -1.9684e-07 -8.0554 -2.7955e-06 -0 0 -0 
0 0.92732 0 -0 0 -0 15.901 1.5688 -60.043 -9.5121 -3.57 30.658 -9.5121 -3.57 30.658 -8.138 -2.6642 25.793 -0 0 -0 13.279 -8.6642 -32.225 1.8644 -6.3517 -7.9002 5.5642 -7.1728 27.937 -0 0 -0 8.7004 -9.5244 -32.208 -1.8223 -0.55879 0.67362 -25.254 1.2381 16.122 8.7164 4.1356 -51.832 8.7164 4.1356 -51.832 15.901 1.5688 -60.043 9.4415 -17.572 80.842 14.594 -0.095321 22.341 -0 0 -0 0 0 -1.0672e-06 -0 0 -0 15.901 1.5688 -60.043 -0.24706 -30.544 63.202 -0.70865 9.9491 26.724 -0 0 -0 1.5666e-07 -7.9394 2.2574e-06 -0 0 -0 
0 0.92749 0 -0 0 -0 15.795 1.3709 -60.558 -9.4465 -3.5397 30.718 -9.4465 -3.5397 30.718 -8.0821 -2.6404 25.842 -0 0 -0 13.506 -8.5012 -32.1 1.8411 -6.2296 -8.669 5.2133 -7.3891 27.44 -0 0 -0 8.8788 -9.2431 -32.495 -1.5871 -0.78278 0.28244 -25.706 1.1086 16.113 8.7448 4.1578 -51.837 8.7448 4.1578 -51.837 15.795 1.3709 -60.558 9.2885 -17.088 81.023 14.46 -0.13239 22.392 -0 0 -0 -8.5377e-07 6.3611e-15 -8.5377e-07 -0 0 -0 15.795 1.3709 -60.558 -0.083601 -30.35 63.622 -0.68751 9.9657 26.683 -0 0 -0 -8.7462e-07 -7.8634 -2.7406e-07 -0 0 -0 
0 0.92767 0 -0 0 -0 15.775 1.2024 -61.023 -9.4971 -3.5518 30.816 -9.4971 -3.5518 30.816 -8.1256 -2.6477 25.925 -0 0 -0 13.885 -8.5204 -32.187 1.9734 -6.1018 -9.7361 4.5858 -7.3972 26.921 -0 0 -0 9.2607 -9.1284 -32.431 -1.5751 -0.84732 -0.033327 -25.744 0.86515 15.935 8.9091 4.1963 -51.929 8.9091 4.1963 -51.929 15.775 1.2024 -61.023 9.1365 -16.735 81.348 14.351 -0.21625 22.38 -0 0 -0 -8.5377e-07 7.9514e-15 -1.0672e-06 -0 0 -0 15.775 1.2024 -61.023 0.090526 -30.218 64.056 -0.72282 9.9958 26.667 -0 0 -0 7.0598e-07 -7.7956 -2.1983e-06 -0 0 -0 
0 0.92785 0 -0 0 -0 15.963 1.1372 -61.323 -9.6273 -3.6239 30.877 -9.6273 -3.6239 30.877 -8.2382 -2.703 25.978 -0 0 -0 14.236 -8.568 -32.241 2.1174 -6.0435 -10.848 3.9783 -7.1081 26.084 -0 0 -0 9.7386 -9.0537 -32.43 -1.5542 -0.75918 0.043736 -25.708 0.86463 15.589 9.1449 4.2434 -52.023 9.1449 4.2434 -52.023 15.963 1.1372 -61.323 8.945 -16.67 81.505 14.269 -0.30982 22.431 -0 0 -0 8.5377e-07 6.3611e-15 8.5377e-07 -0 0 -0 15.963 1.1372 -61.323 0.19301 -30.328 64.345 -0.78017 10.055 26.607 -0 0 -0 8.6329e-07 -7.7385 1.1187e-07 -0 0 -0 
0 0.92805 0 -0 0 -0 16.21 1.0774 -61.524 -9.7672 -3.6664 30.914 -9.7672 -3.6665 30.914 -8.3577 -2.7335 26.01 -0 0 -0 14.452 -8.6201 -32.253 2.1694 -6.1084 -11.662 3.4674 -6.8109 24.743 -0 0 -0 10.145 -9.0834 -32.277 -1.507 -0.56711 -0.1034 -25.617 0.71812 15.453 9.378 4.3174 -52.009 9.3781 4.3174 -52.009 16.21 1.0774 -61.524 8.787 -16.727 81.637 14.216 -0.35228 22.441 -0 0 -0 -8.5377e-07 7.9514e-15 -1.0672e-06 -0 0 -0 16.21 1.0774 -61.524 0.20832 -30.458 64.602 -0.84679 10.097 26.465 -0 0 -0 1.4427e-07 -7.6817 2.1489e-06 -0 0 -0 
0 0.92828 0 -0 0 -0 16.407 1.0444 -61.618 -9.8605 -3.6801 30.956 -9.8605 -3.6801 30.956 -8.4369 -2.7411 26.046 -0 0 -0 14.558 -8.6861 -32.428 2.1415 -6.0537 -12.119 3.4237 -6.8214 23.637 -0 0 -0 10.375 -9.1212 -31.965 -1.4517 -0.44021 -0.54141 -25.612 0.57696 15.496 9.5782 4.4356 -51.979 9.5782 4.4356 -51.979 16.407 1.0444 -61.618 8.6599 -16.794 81.779 14.172 -0.40266 22.387 -0 0 -0 -0 0 -0 -0 0 -0 16.407 1.0444 -61.618 0.19349 -30.553 64.798 -0.88442 10.149 26.276 -0 0 -0 -1.0791e-07 -7.6612 -1.6116e-06 -0 0 -0 
0 0.92851 0 -0 0 -0 16.56 0.95924 -61.576 -10.003 -3.5975 30.959 -10.003 -3.5975 30.959 -8.5543 -2.6663 26.048 -0 0 -0 14.619 -9.0305 -32.723 2.0849 -6.0071 -12.34 3.3617 -6.9237 22.753 -0 0 -0 10.442 -9.4156 -31.482 -1.4079 -0.30579 -0.85325 -25.571 0.61177 15.526 9.8257 4.4266 -51.971 9.8257 4.4266 -51.971 16.56 0.95924 -61.576 8.4356 -16.78 81.804 14.118 -0.48145 22.363 -0 0 -0 0 0 -2.1344e-07 -0 0 -0 16.56 0.95924 -61.576 0.054755 -30.611 64.792 -0.88991 10.171 26.242 -0 0 -0 8.7027e-07 -7.6407 2.1855e-07 -0 0 -0 
0 0.92875 0 -0 0 -0 16.76 0.82741 -61.539 -10.12 -3.5571 30.943 -10.12 -3.5571 30.943 -8.6509 -2.6282 26.035 -0 0 -0 14.69 -9.2057 -32.934 2.0559 -5.9494 -12.655 3.6081 -7.1802 22.424 -0 0 -0 10.483 -9.5736 -31.019 -1.3973 -0.2429 -0.76928 -25.382 0.71944 15.518 10.049 4.4762 -51.944 10.049 4.4762 -51.944 16.76 0.82741 -61.539 8.1908 -16.83 81.723 14.102 -0.47153 22.316 -0 0 -0 0 0 -1.2807e-06 -0 0 -0 16.76 0.82741 -61.539 -0.16976 -30.718 64.767 -0.8737 10.189 26.198 -0 0 -0 -1.6829e-07 -7.627 -2.5247e-06 -0 0 -0 
0 0.92897 0 -0 0 -0 16.848 0.70746 -61.589 -10.187 -3.467 30.913 -10.187 -3.467 30.913 -8.7043 -2.5502 26.01 -0 0 -0 14.652 -9.3915 -33.028 2.0684 -5.9627 -12.94 3.6115 -7.314 22.125 -0 0 -0 10.457 -9.7002 -30.537 -1.4266 -0.31607 -0.42557 -25.275 0.84592 15.428 10.157 4.4515 -51.86 10.157 4.4515 -51.86 16.848 0.70746 -61.589 7.9914 -16.754 81.711 14.028 -0.50693 22.349 -0 0 -0 -8.5377e-07 -1.5903e-15 2.1344e-07 -0 0 -0 16.848 0.70746 -61.589 -0.29721 -30.745 64.83 -0.84266 10.208 26.194 -0 0 -0 7.1946e-07 -7.6495 -2.0376e-06 -0 0 -0 
0 0.92915 0 -0 0 -0 16.972 0.55603 -61.617 -10.329 -3.3774 30.891 -10.329 -3.3774 30.891 -8.8207 -2.4698 25.991 -0 0 -0 14.702 -9.6876 -33.213 2.081 -5.9418 -12.997 3.6952 -7.426 21.712 -0 0 -0 10.52 -9.8649 -30.301 -1.3888 -0.47925 -0.036923 -25.089 0.9985 15.24 10.305 4.3579 -51.806 10.305 4.3579 -51.806 16.972 0.55603 -61.617 7.7549 -16.702 81.681 13.961 -0.527 22.413 -0 0 -0 8.5377e-07 3.1806e-15 4.2689e-07 -0 0 -0 16.972 0.55603 -61.617 -0.4879 -30.79 64.883 -0.81176 10.225 26.208 -0 0 -0 8.7767e-07 -7.6992 3.2647e-07 -0 0 -0 
0 0.92929 0 -0 0 -0 17.133 0.43035 -61.71 -10.502 -3.3152 30.857 -10.502 -3.3152 30.857 -8.9635 -2.4116 25.963 -0 0 -0 14.788 -9.9839 -33.411 2.1375 -5.9598 -12.858 3.6134 -7.5138 21.367 -0 0 -0 10.827 -10.132 -29.911 -1.5309 -0.70847 0.073954 -24.977 1.1238 15.178 10.463 4.2926 -51.735 10.463 4.2926 -51.735 17.133 0.43035 -61.71 7.5057 -16.672 81.711 13.885 -0.60559 22.44 -0 0 -0 -8.5377e-07 -4.7708e-15 6.4033e-07 -0 0 -0 17.133 0.43035 -61.71 -0.61673 -30.892 65.007 -0.78841 10.279 26.244 -0 0 -0 7.9021e-07 -7.7919 -9.6239e-07 -0 0 -0 
